<svg width="57" height="50" viewBox="0 0 57 50" fill="none" xmlns="http://www.w3.org/2000/svg">
<rect width="57" height="50" fill="#E2F2FF"/>
<g id="shop &#226;&#128;&#148; customization">
<path d="M-5168.18 -169.18C-5168.18 -170.285 -5167.28 -171.18 -5166.18 -171.18H11207.8C11208.9 -171.18 11209.8 -170.285 11209.8 -169.18V3207.82C11209.8 3208.92 11208.9 3209.82 11207.8 3209.82H-5166.18C-5167.28 3209.82 -5168.18 3208.92 -5168.18 3207.82V-169.18Z" fill="#C4C4C4"/>
<path d="M-5166.18 -171.18V-170.18H11207.8V-171.18V-172.18H-5166.18V-171.18ZM11209.8 -169.18H11208.8V3207.82H11209.8H11210.8V-169.18H11209.8ZM11207.8 3209.82V3208.82H-5166.18V3209.82V3210.82H11207.8V3209.82ZM-5168.18 3207.82H-5167.18V-169.18H-5168.18H-5169.18V3207.82H-5168.18ZM-5166.18 3209.82V3208.82C-5166.73 3208.82 -5167.18 3208.37 -5167.18 3207.82H-5168.18H-5169.18C-5169.18 3209.48 -5167.84 3210.82 -5166.18 3210.82V3209.82ZM11209.8 3207.82H11208.8C11208.8 3208.37 11208.4 3208.82 11207.8 3208.82V3209.82V3210.82C11209.5 3210.82 11210.8 3209.48 11210.8 3207.82H11209.8ZM11207.8 -171.18V-170.18C11208.4 -170.18 11208.8 -169.732 11208.8 -169.18H11209.8H11210.8C11210.8 -170.837 11209.5 -172.18 11207.8 -172.18V-171.18ZM-5166.18 -171.18V-172.18C-5167.84 -172.18 -5169.18 -170.837 -5169.18 -169.18H-5168.18H-5167.18C-5167.18 -169.732 -5166.73 -170.18 -5166.18 -170.18V-171.18Z" fill="black" fill-opacity="0.1"/>
<g id="skin color">
<rect width="1280" height="720" transform="translate(-50.18 -18.1799)" fill="#512ED0"/>
<g id="back_icon">
<g filter="url(#filter0_i_68_3011)">
<path d="M53.2061 20.4413C53.206 17.2195 50.775 14.517 47.5712 14.177L30.6285 12.379L30.7777 5.12676C30.6498 4.62523 30.3969 4.16429 30.0426 3.78694C29.6884 3.40958 29.2443 3.12812 28.7518 2.96881C28.2594 2.80951 27.7346 2.77755 27.2264 2.87591C26.7183 2.97428 26.2433 3.19977 25.8459 3.53134L4.18475 21.5967C3.75757 21.9532 3.41392 22.3991 3.1781 22.903C2.94227 23.4069 2.82004 23.9564 2.82004 24.5128C2.82004 25.0691 2.94227 25.6187 3.1781 26.1226C3.41392 26.6265 3.75757 27.0724 4.18475 27.4288L25.8449 45.4931C26.2423 45.8249 26.7172 46.0507 27.2255 46.1493C27.7337 46.2478 28.2586 46.216 28.7512 46.0568C29.2438 45.8976 29.688 45.6162 30.0424 45.2388C30.3968 44.8614 30.6498 44.4003 30.7777 43.8987L30.6285 36.6465L47.5715 34.8483C50.7753 34.5083 53.2063 31.8056 53.2062 28.5837L53.2061 20.4413Z" fill="white"/>
</g>
<path d="M26.9587 1.49194C27.7007 1.34835 28.4672 1.39509 29.1862 1.62769C29.9051 1.86033 30.5538 2.27115 31.071 2.82202C31.5881 3.37295 31.9575 4.04592 32.1443 4.77808L32.1911 4.96362L32.1872 5.15601L32.0642 11.113L47.7204 12.7751C51.6411 13.1914 54.6158 16.4984 54.6159 20.4412V28.5837C54.616 32.5267 51.6413 35.8345 47.7204 36.2507L32.0642 37.9119L32.1872 43.8699L32.1911 44.0613L32.1443 44.2468C31.9574 44.9793 31.5875 45.6528 31.07 46.2039C30.5527 46.7548 29.9044 47.1657 29.1853 47.3982C28.466 47.6307 27.6989 47.6779 26.9568 47.5339C26.2151 47.3901 25.5221 47.0601 24.9421 46.5759L3.28195 28.5115H3.28098C2.69537 28.0228 2.22442 27.4113 1.90109 26.7205C1.57771 26.0295 1.40988 25.2754 1.40988 24.5125C1.40993 23.7497 1.57778 22.9963 1.90109 22.3054C2.22439 21.6146 2.69539 21.0031 3.28098 20.5144L3.28195 20.5134L24.9431 2.44897C25.5234 1.96487 26.2168 1.63557 26.9587 1.49194Z" stroke="black" stroke-width="2.82004"/>
</g>
</g>
</g>
<defs>
<filter id="filter0_i_68_3011" x="0" y="0" width="56.0263" height="49.0254" filterUnits="userSpaceOnUse" color-interpolation-filters="sRGB">
<feFlood flood-opacity="0" result="BackgroundImageFix"/>
<feBlend mode="normal" in="SourceGraphic" in2="BackgroundImageFix" result="shape"/>
<feColorMatrix in="SourceAlpha" type="matrix" values="0 0 0 0 0 0 0 0 0 0 0 0 0 0 0 0 0 0 127 0" result="hardAlpha"/>
<feOffset dx="-1.30156" dy="-8.67705"/>
<feComposite in2="hardAlpha" operator="arithmetic" k2="-1" k3="1"/>
<feColorMatrix type="matrix" values="0 0 0 0 0.839216 0 0 0 0 0.839216 0 0 0 0 0.839216 0 0 0 1 0"/>
<feBlend mode="normal" in2="shape" result="effect1_innerShadow_68_3011"/>
</filter>
</defs>
</svg>
