<svg width="1280" height="720" viewBox="0 0 1280 720" fill="none" xmlns="http://www.w3.org/2000/svg">

<g id="shop &#226;&#128;&#148; customization">


<g id="skin color" clip-path="url(#clip0_68_3011)">

<g id="Classic" clip-path="url(#clip1_68_3011)">

<path id="back line" opacity="0.35" d="M-973.352 498.569C-772.818 441.514 -574.588 376.52 -379.333 303.411C-184.006 230.28 11.023 151.47 198.405 59.6269C282.547 18.3767 358.414 -42.0144 366.887 -141.246C368.746 -163.074 347.783 -182.576 328.534 -187.688C246.068 -209.518 162.854 -167.605 88.0437 -137.206C13.2332 -106.807 -59.9823 -74.2799 -132.681 -39.8759C-276.795 28.3285 -416.928 104.94 -552.124 189.46C-686.097 273.213 -815.232 364.713 -938.609 463.425C-995.772 509.166 -1055.91 556.591 -1086.87 625.164C-1118.63 695.518 -1108.22 777.274 -1037.73 819.51C-973.629 857.929 -885.063 848.277 -814.77 837.233C-731.425 824.16 -651.121 799.898 -572.201 770.478C-416.429 712.42 -263.846 645.04 -113.557 574.159C181.65 434.931 466.601 273.97 738.191 92.9277C772.753 69.8932 807.098 46.5174 841.228 22.8369C873.494 0.446183 904.983 -22.0426 927.972 -54.4535C949.654 -85.0257 961.268 -122.327 949.103 -159.162C936.33 -197.851 899.399 -220.109 861.796 -229.133C779.261 -248.971 691.477 -233.087 611.092 -211.327C530.727 -189.549 452.187 -161.213 375.336 -129.314C218.608 -64.2745 67.4143 14.4341 -81.9885 94.6372C-229.389 173.766 -374.545 257.024 -517.275 344.293C-661.301 432.35 -802.825 524.49 -941.614 620.554C-1073.29 711.694 -1205.96 804.071 -1323.68 913.095C-1381.33 966.481 -1435.88 1024.53 -1480.63 1089.29C-1524.77 1153.15 -1551.15 1239.71 -1503.13 1309.28C-1463.71 1366.42 -1392.46 1389.75 -1326.38 1396.48C-1238.16 1405.46 -1151.24 1396.08 -1064.52 1379.24C-899.339 1347.19 -736.602 1296.63 -577.55 1242.33C-416.826 1187.46 -258.756 1125.13 -102.488 1058.69C205.156 927.884 511.533 788.378 807.011 631.825C954.344 553.767 1098.52 469.425 1235.89 374.835C1361.54 288.318 1484.06 191.666 1569.06 63.0904C1610.14 0.931606 1638.58 -78.3162 1618.63 -152.824C1598.89 -226.602 1529.75 -271.729 1457.94 -284.92C1300.02 -313.957 1137.75 -238.161 1000.83 -167.903C735.99 -32.0362 508.347 166.582 302.368 379.149C198.856 485.988 100.053 597.263 2.25675 709.327C-101.952 828.737 -209.765 947.387 -292.316 1083.4C-330.541 1146.37 -369.429 1215.82 -371.627 1291.25C-373.727 1363.57 -323.301 1428.76 -250.483 1438.64C-179.312 1448.3 -113.622 1418.76 -50.3366 1390.37C27.1182 1355.59 104.272 1320.18 181.143 1284.15C491.121 1138.83 796.436 983.711 1096.22 818.385C1245.13 736.267 1392.91 651.966 1538.83 564.607C1678.17 481.157 1814.35 392.582 1938.31 287.215C1993.45 240.338 2063.37 185.489 2077.78 109.967C2093.56 27.2616 2031.51 -30.9481 1955.02 -45.132C1787.34 -76.2132 1612.72 -11.3467 1457.71 45.7785C1145.1 160.96 850.089 318.692 562.144 484.948C278.718 648.593 -5.65309 814.854 -265.441 1014.79C-499.421 1194.85 -753.924 1413.29 -843.033 1706.02C-866.659 1783.62 -849.484 1859.86 -781.486 1907.42C-722.678 1948.56 -648.651 1957.79 -578.584 1957.27C-409.43 1956.04 -241.732 1894.49 -84.6739 1837.28C236.324 1720.37 544.007 1568.29 851.321 1419.92C1161.26 1270.29 1469 1115.62 1768.21 945.367C2040.07 790.654 2312.7 624.178 2528.96 394.901C2580.13 340.648 2629.96 284.238 2654.16 212.379C2678.37 140.521 2659.77 63.7675 2592.93 24.0389C2526.79 -15.2753 2432.41 -7.41842 2359.58 2.34526C2281.27 12.8239 2204.07 32.1553 2128.26 54.047C1874.31 127.388 1632.31 244.314 1415.05 394.629C1196.5 545.824 1000.73 731.111 839.292 942.278C757.696 1049 684.025 1161.89 620.615 1280.36C589.631 1338.25 561.055 1397.45 535.047 1457.74C507.236 1522.26 471.901 1592.59 466.497 1663.35C460.534 1741.39 510.29 1801.31 583.915 1820.82C653.11 1839.16 729.777 1824.9 798.962 1814.25C969.683 1788 1135.93 1741.03 1299.33 1685.77C1624.75 1575.71 1944.83 1447.77 2259.72 1310.67C2417.9 1241.79 2574.77 1169.88 2730.29 1095.2C2879.54 1023.53 3028.19 949.414 3167.22 859.123C3226.34 820.746 3317.6 774.148 3327.8 696.177C3340.83 596.617 3219.89 577.788 3146.88 583.617C3064.81 590.175 2986.6 620.893 2909.93 648.805C2836.42 675.541 2763.48 703.766 2691.17 733.55C2399.68 853.621 2117.59 998.535 1855.53 1174.19C1725.68 1261.22 1600.51 1355.64 1482.37 1458.05C1371.47 1554.19 1260.62 1667.82 1207.65 1807.57C1192.5 1847.56 1193.83 1891.88 1225.52 1923.59C1251.23 1949.31 1288.43 1958.15 1323.59 1959.88C1403.99 1963.86 1486.75 1934.84 1560.05 1904.88C1721.35 1838.94 1879.99 1765.32 2038.19 1692.34C2197.18 1618.97 2355.27 1543.64 2512.31 1466.19C2655.99 1395.33 2800.79 1323.64 2921.9 1216.98C2953.62 1189.07 2980.8 1149.11 2968.31 1104.9C2956.95 1064.68 2917.41 1046.76 2879.55 1040.58C2799.48 1027.54 2718.24 1035.72 2640.46 1057.65C2492.77 1099.31 2356.05 1185.45 2233.97 1276.53C2113.04 1366.74 2002.08 1470.67 1905.39 1586.54C1857.08 1644.44 1811.66 1705.28 1770.7 1768.63C1729.02 1833.08 1698.36 1915.45 1741.74 1987.2C1817.45 2112.49 2000.33 2050.17 2108.46 2017.97C2263.64 1971.76 2416.62 1918.23 2566.77 1857.67C2858.77 1739.9 3140.26 1596.08 3406.61 1428.18C3450.51 1400.5 3425.23 1338.16 3377.87 1336.65C3233.29 1332.04 3089.64 1363.63 2959.2 1425.65C2837.95 1483.29 2719.49 1570.39 2658.74 1693.53C2624.64 1762.63 2613.43 1838.82 2634.12 1913.63C2651.18 1975.24 2745.91 1945.1 2728.83 1883.41C2690.21 1743.8 2822.88 1620.35 2929.02 1554.79C3064.64 1471.01 3222.8 1430.89 3381.81 1435.96C3372.24 1405.45 3362.66 1374.94 3353.07 1344.43C3098.89 1504.67 2831.22 1642.98 2552.92 1756.34C2412.52 1813.53 2269.62 1864.56 2124.73 1909.2C2064.1 1927.87 1998.98 1952.27 1937.59 1959.73C1911.54 1962.91 1888.03 1964.01 1864.56 1958.55C1845.47 1954.11 1832.5 1948.53 1824.06 1931.18C1813.29 1909.06 1822.49 1882.01 1832.35 1861.17C1847.3 1829.52 1867.83 1800.58 1887.78 1771.93C1926.12 1716.94 1968.22 1664.41 2012.61 1614.18C2103.44 1511.39 2205.31 1418.74 2316.83 1338.86C2431.31 1256.88 2557.05 1179.03 2695.34 1145.95C2727.94 1138.15 2761.15 1133.94 2794.67 1133.36C2811.26 1133.09 2827.89 1133.55 2844.35 1135.59C2849.92 1136.27 2875.63 1142.6 2877.13 1140.5C2876.92 1140.8 2871.6 1126.09 2872.43 1126.48C2867.51 1124.21 2876.61 1125.1 2871.52 1126.79C2866.94 1128.32 2859.23 1140.23 2855.32 1143.87C2841.66 1156.53 2826.87 1168.13 2812.11 1179.46C2783.72 1201.21 2754.17 1221.43 2723.9 1240.47C2593.76 1322.34 2452.03 1386.43 2313.8 1453.2C2169.56 1522.89 2024.44 1590.74 1878.51 1656.79C1803.58 1690.71 1728.45 1724.15 1653.1 1757.13C1582.25 1788.14 1511.48 1821.73 1437.03 1843.33C1401.89 1853.53 1365.81 1860.73 1329.09 1860.79C1319.73 1860.81 1310.49 1859.54 1301.57 1856.52C1300.58 1856.19 1294.52 1854.87 1297.3 1855.25C1297.87 1855.34 1295.15 1852.8 1294.37 1851.17C1296.62 1855.87 1295.24 1857.62 1296.96 1852.87C1319.37 1790.9 1355.95 1734.28 1397.68 1683.48C1484.68 1577.54 1593.46 1490.03 1701.68 1406.83C1817.52 1317.77 1938.47 1235.44 2063.27 1159.49C2311.07 1008.66 2573.58 883.405 2844.25 779.412C2913.89 752.664 2983.97 725.676 3055.24 703.633C3089.34 693.087 3123.83 684.294 3159.58 682.395C3177.15 681.458 3194.37 681.897 3211.65 685.281C3217.07 686.337 3222.47 688.241 3227.93 688.982C3234.51 689.899 3230.94 693.117 3232.26 690.173C3231.1 692.705 3228.12 680.151 3230.46 683.89C3226.63 677.834 3232.62 680.801 3228.99 685.753C3227.38 687.954 3237.59 668.686 3226.93 688.745C3224.45 693.43 3220.82 697.203 3217.2 701.049C3205.52 713.505 3191.05 722.718 3177.15 732.499C3146.44 754.109 3115.1 774.824 3083.29 794.783C3017.04 836.317 2948.75 874.47 2879.46 910.691C2599.99 1056.77 2309.84 1184.67 2018.77 1305.63C1725.58 1427.46 1427.84 1546.51 1123.5 1637.73C977.936 1681.37 824.137 1722.33 671.569 1729.33C631.946 1731.14 570.694 1730.06 565.27 1683.01C561.862 1653.3 576.01 1621.35 586.331 1594.14C597.352 1565.1 609.103 1536.32 621.36 1507.76C717.274 1284.33 848.228 1076.81 1007.27 893C1166.55 708.904 1352.31 548.918 1558.28 419.148C1764 289.535 1988.58 191.333 2224.18 130.86C2298.68 111.728 2374.26 95.4816 2451.54 95.3219C2496.15 95.2261 2569.81 97.2362 2565.49 155.89C2561.27 213.214 2515.19 262.568 2478.66 302.884C2429.98 356.614 2377.76 407.096 2323.06 454.692C2101.54 647.449 1840.32 793.652 1584.19 934.625C1304.44 1088.6 1018.21 1230.42 730.384 1368.62C445.866 1505.23 160.931 1643.85 -136.55 1750.41C-280.279 1801.9 -432.569 1858.08 -587.152 1857.98C-637.567 1857.96 -704.64 1853.16 -740.615 1812.78C-775.992 1773.09 -737.738 1698.79 -717.73 1654.86C-661.756 1531.9 -576.019 1426.46 -480.949 1331.56C-378.136 1228.93 -265.056 1136.71 -148.216 1050.56C97.7944 869.172 362.82 714.363 627.369 561.948C892.639 409.119 1163.5 263.914 1450.02 154.686C1590.36 101.184 1742.93 39.7162 1895.76 47.5522C1919.18 48.7584 1952.12 50.1026 1971.56 65.2816C1990 79.6717 1977.67 102.542 1967.43 118.845C1949.83 146.86 1922.71 169.157 1898.31 190.996C1872.07 214.491 1845.01 236.97 1817.28 258.702C1698.47 351.781 1569.7 431.109 1439.94 507.824C1304.67 587.779 1168.16 665.591 1030.52 741.348C751.952 894.669 468.658 1039.37 181.162 1175.22C111.083 1208.34 40.7029 1240.83 -29.8996 1272.83C-85.5744 1298.06 -147.143 1335.38 -209.257 1340.87C-227.741 1342.5 -248.113 1342.5 -260.978 1328.85C-277.536 1311.25 -273.199 1283.19 -268.02 1261.93C-252.366 1197.87 -210.843 1137.26 -174.531 1083.18C-94.4304 963.841 4.72647 857.286 99.2068 749.388C190.092 645.593 282.101 542.711 378.187 443.701C568.767 247.329 777.155 65.2608 1019.01 -65.4929C1079.32 -98.0973 1141.46 -127.753 1205.71 -151.782C1273.12 -177.006 1347.75 -198.262 1420.57 -190.452C1469.33 -185.224 1523.48 -162.601 1525.9 -106.774C1528.56 -45.3768 1486.85 12.9022 1450.14 58.2916C1360.96 168.558 1243.7 251.408 1126.29 328.921C998.389 413.372 865.221 489.578 729.531 560.727C454.253 705.039 169.956 834.679 -115.782 956.806C-403.874 1079.95 -698.822 1190.01 -1003.61 1264.34C-1079.24 1282.78 -1155.73 1298.23 -1233.77 1300.85C-1288.51 1302.69 -1360.26 1303.55 -1406.38 1268.71C-1455.7 1231.46 -1415.1 1164.82 -1385.49 1126.36C-1341.62 1069.36 -1291.44 1017.38 -1238.18 969.139C-1128.69 869.983 -1005.62 785.632 -884.344 701.776C-756.755 613.561 -626.861 528.662 -494.86 447.198C-230.407 284.012 42.7787 127.828 326.24 -0.139333C396.648 -31.9288 468.262 -61.1875 541.454 -85.9775C614.645 -110.768 686.127 -134.071 761.328 -137.943C793.166 -139.576 822.258 -135.685 852.396 -128.188C860.489 -126.17 854.33 -121.707 854.593 -129.454C854.608 -129.989 853.783 -123.417 854.453 -124.641C847.48 -111.912 839.843 -101.533 829.043 -91.4706C804.903 -69.0159 774.517 -51.6916 747.331 -33.1129C715.482 -11.3467 683.438 10.1327 651.216 31.3243C397.125 198.483 131.546 348.156 -142.996 478.993C-279.807 544.181 -419.093 604.55 -560.246 659.669C-631.656 687.556 -704.159 713.461 -779.089 730.179C-815.586 738.333 -852.587 743.542 -889.936 745.56C-918.388 747.096 -951.502 749.553 -978.596 738.436C-1027.73 718.247 -1000.79 665.178 -975.839 632.579C-935.107 579.404 -876.742 539.822 -824.122 499.345C-706.853 409.146 -584.671 325.327 -458.312 248.36C-338.086 175.118 -214.093 108.119 -86.9882 47.6077C-23.4443 17.3618 41.1185 -10.8799 106.24 -37.5782C138.211 -50.6921 170.319 -63.6272 202.701 -75.6707C235.084 -87.7142 270.189 -100.289 305.894 -90.8401C293.103 -106.32 280.331 -121.801 267.541 -137.281C262.702 -80.5776 183.271 -42.2039 135.866 -19.7828C47.7446 21.9202 -41.8519 60.7899 -131.734 98.4921C-312.677 174.385 -496.53 243.339 -682.748 305.13C-788.955 340.386 -895.94 373.242 -1003.58 403.858C-1065.07 421.35 -1034.97 516.102 -973.371 498.569L-973.352 498.569Z" fill="#7C62FD"/>
</g>
</g>
</g>
<defs>
<clipPath id="clip0_68_3011">

</clipPath>
<clipPath id="clip1_68_3011">

</clipPath>
</defs>
</svg>
